<?xml version="1.0" encoding="utf-8"?>
<!-- Generator: Adobe Illustrator 24.0.0, SVG Export Plug-In . SVG Version: 6.00 Build 0)  -->
<svg version="1.1" xmlns="http://www.w3.org/2000/svg" xmlns:xlink="http://www.w3.org/1999/xlink" x="0px" y="0px"
	 viewBox="0 0 5000 4237.7" style="enable-background:new 0 0 5000 4237.7;" xml:space="preserve">
<style type="text/css">
	.st0{fill:#343549;}
	.st1{fill:#D5281E;}
	.st2{fill:#E03020;}
	.st3{fill:#EE8456;}
	.st4{fill:#F29C77;}
	.st5{fill:#F6B498;}
	.st6{fill:#989898;}
	.st7{fill:#656565;}
	.st8{fill:#94CCE8;}
	.st9{fill:#F1B480;}
	.st10{fill:#F4C7A1;}
	.st11{fill:none;}
</style>
<g id="Слой_1">
</g>
<g id="Слой_2">
	<path class="st0" d="M547.83,2781.89c-4.85,8.57-4.66,10.05-19.94,53.72c-30.47,87.12-35.96,94.8-39.87,122.8
		c-4.79,34.31-7.91,56.64,3.99,80.59c4.84,9.73,20.88,37.3,87.72,61.4c55.7,20.08,100.61,21.16,151.52,23.02
		c71.84,2.63,148.94,5.35,303.04,15.35c107.83,7,188.35,17.08,190.39,7.25c2.21-10.65-94.52-11.1-150.51-80.16
		c-32.36-39.91-53.52-105.55-52.12-168.52c0.08-3.48,0.2-6.19,0.29-8.01c4.52-97.95,63.01-162.43,47.85-172.69
		c-10.87-7.35-37.46,28.11-99.68,49.89c0,0-40.69,14.24-87.72,15.35c-126.74,2.98-173.49-100.77-251.2-76.75
		C583.71,2719.94,551.96,2774.59,547.83,2781.89z"/>
	<path class="st1" d="M3075.81,2118.01c26.53,59.16,24.98,106.42,23.92,211.06c-2.11,209.69,2.72,158.06,0,207.22
		c-4.72,85.19-13.86,143.02,15.95,199.55c18.94,35.92,39.87,61.4,39.87,61.4c31.66,38.54,46.51,38.6,55.82,61.4
		c10.05,24.6,0.46,43.38-19.94,107.45c-29.83,93.72-20.64,93.75-31.9,111.29c-62.73,97.72-344.58,100.63-410.7-15.35
		c-23.64-41.47-18.03-95.2-15.95-115.12c6.46-61.85,34.61-104.86,47.85-126.64c0,0,66.64-109.61,95.7-276.3
		c31.56-181.04-63.11-226.81-7.97-364.56c28.01-69.97,89.08-149.71,139.56-141.99C3042,2042.62,3061.43,2085.94,3075.81,2118.01z"/>
	<path class="st2" d="M2641.19,3063.94c12.81-2.66,54.08-11.73,92.92-43.76c60.65-50.02,78.02-125.23,92.49-301.61
		c14.27-173.95,21.93-261.01,13.96-305.08c-58.62-323.78-463.58-602.61-626.01-521.89c-61.07,30.35-74.63,103.27-99.68,237.92
		c-23.59,126.81-82.53,448.43,123.61,709.93C2253.96,2859.1,2449.91,3103.69,2641.19,3063.94z"/>
	<path class="st3" d="M2792.71,2451.87c1.54,51.84,10.46,69.55,15.95,130.47c6.67,74.1,7.5,130.86,7.97,168.85
		c1.14,91.05-3.43,110.15,0,195.71c2.03,50.59,3.05,75.88,7.97,99.77c10,48.5,29.39,142.48,99.68,168.85
		c45.45,17.05,89.36-2.74,91.71-3.84c22.06-10.33,38.17-27.16,59.81-65.24c39.55-69.57,75.73-133.21,59.81-203.38
		c-11.02-48.59-33.64-41.31-79.75-118.96c-31.97-53.83-46.56-104.96-75.76-207.22c-6.94-24.29-17.92-73.76-39.87-172.69
		c-14.81-66.74-17.65-82.55-15.95-107.45c3.95-57.8,28.29-104.86,43.86-134.31c29.3-55.43,39.34-47.23,51.84-84.42
		c9.49-28.24,4.77-36.15,11.96-134.31c3.87-52.82,5.51-54.27,3.99-69.07c-2.88-28.08-24.82-100.86-51.84-111.29
		c-76-29.35-312.34,386.49-246.31,453.2c6.72,6.79,31.34,24.88,38.97,57.18c0.18,0.74,0.14,0.65,2.03,12.5
		c6.54,40.86,8.31,50.57,9.58,59.06C2792.53,2413.02,2792.12,2432.06,2792.71,2451.87z"/>
	<path class="st4" d="M2469.73,2187.09c5.93,15.81,6.69,68.31,7.97,172.69c0.72,58.33-4.9,91.25,0,153.5
		c1.65,21.02,5.03,54.67,27.93,88.97c10.61,15.9,25.44,37.41,53.23,44.64c23.25,6.05,46.1-0.36,57.03-3.43
		c10.82-3.04,24.49-6.88,35.22-15.66c26.25-21.46,10.72-52.62,24.18-105.88c2.04-8.08,0.55-0.05,33.67-73.87
		c4.68-10.43,27.11-63.49,38.14-103.8c2.63-9.61,4.59-20.46,5.72-34.35c3.87-47.42-8.25-52.17,0-92.1
		c4.84-23.43,11.96-36.04,51.84-107.45c33.2-59.46,49.76-89.41,47.85-99.77c-9.06-49.12-104.96-93.92-187.41-80.59
		c-99.95,16.16-187.38,118.94-187.41,118.96c9.47-13.96-20.78,27.01-27.91,42.21C2435.67,2121.24,2456.67,2152.25,2469.73,2187.09z"
		/>
	<path class="st5" d="M2685.05,2010.56c9.92,5.75,19.75,12.37,39.87,23.02c15.41,8.16,38.23,20.14,67.78,30.7
		c33.52,11.98,56.61,20.23,87.72,19.19c21.9-0.73,48.89-1.64,63.8-19.19c15.39-18.12-0.26-32.62,11.96-69.07
		c7.41-22.11,15.02-22.3,39.87-65.24c7.63-13.17,16.69-28.83,23.92-46.05c23.32-55.5,8.51-81.78,27.91-141.99
		c9-27.92,17.6-39.08,23.92-53.72c40.84-94.53-30.27-292.78-155.51-318.51c-112.74-23.17-216.23,104.39-259.18,157.34
		c-140.05,172.63-153.45,407.96-87.72,445.14C2591.66,1984.77,2629.96,1978.63,2685.05,2010.56z"/>
	<path class="st4" d="M2226.51,3123.42c-10.35,22.44,25.75,65.91,67.78,88.26c45.29,24.08,91.47,20.44,107.66,19.19
		c258.82-20.05,87.74,9.25,318.99-19.19c189.29-23.28,283.94-34.92,299.05-42.21c14.19-6.85,52.51-26.98,91.71-15.35
		c24.81,7.36,26.29,19.95,55.82,34.54c21.68,10.71,34.48,10.07,111.65,15.35c93.42,6.4,101.37,9.12,115.99,0.79
		c12.55-7.14,24.21-31.1,47.54-79c0,0,13.88-28.51,30.42-85.87c2.26-7.83,6.18-22.4,2.08-40.15c-0.4-1.73-0.59-2.6-0.79-3.06
		c-8.42-19.92-61.72-14.26-139.41-11.45c-107,3.88-77.57-4.65-179.43,0c-85.11,3.89-97.25,8.8-259.18,23.02
		c-100.72,8.85-151.57,13.23-175.44,11.51c-104.69-7.55-126.74-35.97-195.38-19.19c-43.6,10.66-64.96,29.53-119.62,30.7
		c-21.13,0.45-36.7-1.97-55.82,7.68c-27.24,13.73-24.6,33.24-51.84,53.72C2263.6,3118.8,2234.67,3105.72,2226.51,3123.42z"/>
	<path class="st3" d="M723.28,1504.02c-7.82-27.73-16-41.81-7.97-53.72c5.35-7.95,14.63-10.05,43.86-15.35
		c42.58-7.72,63.87-11.58,67.78-11.51c42.53,0.71,96.83,26.74,115.63,69.07c7.87,17.72,1.37,55.55-11.96,130.47
		c-9.65,54.27-14.68,70.14-11.96,99.77c3.58,38.95,17.34,66.8,23.92,80.59c63.47,132.97,47.7,191.63,131.58,349.21
		c34.47,64.75,37.41,55.37,91.71,153.5c58.61,105.92,51.79,110.72,87.72,161.17c37.94,53.28,70.26,82.62,59.81,99.77
		c-11.19,18.37-53.55-6.56-99.68,19.19c-20.12,11.23-19.22,19.97-63.8,65.24c-30.22,30.69-45.33,46.04-51.84,46.05
		c-42.41,0.08-70.28-175.32-151.52-487.36c-42.33-162.59-58.95-207.85-95.7-249.43c-15.11-17.09-50.77-52.98-71.77-111.29
		c-10.33-28.69-16.15-60.15-19.94-80.59c-4.07-21.97-3.9-26.81-11.96-92.1c-4.52-36.62-7.42-60.06-11.96-92.1
		C727.98,1533.44,724.36,1507.85,723.28,1504.02z"/>
	<polygon class="st6" points="3741.7,2438.66 3331,3296.11 3331,3319.13 4359.74,3284.6 4391.63,3250.06 4782.39,2490.24 
		4730.56,2467.22 	"/>
	<path class="st6" d="M2609.29,3231.83v41.25l721.71,46.05c2.76-13.44,5.52-26.87,8.28-40.31
		C3095.95,3263.16,2852.62,3247.5,2609.29,3231.83z"/>
	<path class="st7" d="M3331,3195.13l-721.71,36.7c243.33,15.66,486.66,31.33,729.99,46.99c12.67-26.45,25.34-52.9,38.01-79.35
		C3361.86,3198.03,3346.43,3196.58,3331,3195.13z"/>
	<path class="st0" d="M2274.35,1914.63c2.4-13.93,18.68-11.16,39.87-34.54c22.48-24.8,19.65-45.61,35.89-99.77
		c3.32-11.09,14.93-40.78,14.94-40.79c0,0,3.22-19.58,4.5-32.16c1.9-18.73,0.52-32.37,0-40.23c-2.18-33.21,4.22-67.41,8.48-90.21
		c10.3-55.07,29.84-95.55,35.89-107.45c12.63-24.87,34.54-67.04,79.75-107.45c52.49-46.92,105.43-64.28,143.54-76.75
		c59.05-19.32,87.13-15.45,95.77-13.98c13.75,2.34,44.65,9.87,60.6,20.24c1.85,1.2,10.42,6.92,23.06,12.93
		c18.27,8.68,25.44,9.22,55.82,19.19c43.73,14.35,67.05,22,87.72,34.54c33.15,20.11,49.4,46.69,67.78,76.75
		c25.68,42,34.49,77.15,47.85,130.47c14.11,56.34,21.35,85.21,19.94,126.64c-1.13,33.16-6.46,34.93-19.94,118.96
		c-11.1,69.2-10.68,87.9-15.95,88.26c-11.07,0.76-38.67-80.12-31.9-168.85c4.31-56.43,18.56-64.24,15.95-115.12
		c-1.38-26.87-4.62-76.97-39.87-122.8c-24.8-32.24-77.98-78.67-119.62-65.24c-18.43,5.94-26.87,21.12-51.84,72.91
		c-53.68,111.37-51.66,118.01-71.77,153.5c-39.26,69.27-57.5,62.54-95.7,134.31c-21.76,40.87-38.17,71.72-43.86,115.12
		c-4.87,37.15,3.05,83.46,4.26,92.31c5.25,38.27,18.01,61.89,3.71,88.05c-7.41,13.55-12.52,11.06-25.09,27.38
		c-32.13,41.7-18.09,82.99-34.72,87.75c-16.87,4.83-30.37-37.98-67.96-43.09c-36.22-4.93-54.24,30.66-75.58,23.91
		c-34.18-10.82,8.77-103.14-44.21-173.32C2341.49,1952.89,2269.42,1943.21,2274.35,1914.63z"/>
	<path class="st4" d="M910.68,1488.67c-0.36-9.46-0.9-32.74,15.95-49.89c10.19-10.37,29.16-20.95,43.86-15.35
		c11.87,4.52,14.03,16.94,23.92,42.21c13.4,34.23,13.94,23.01,35.89,72.91c18.37,41.78,17.27,48,31.9,72.91
		c21.06,35.84,35.64,43.88,39.87,46.05c19.15,9.82,28.69,3.2,55.82,7.67c35.48,5.85,83.29,27.73,87.72,57.56
		c1.89,12.74-6.69,25.3-23.92,49.89c-22.17,31.63-42.38,51.46-51.84,61.4c-25.2,26.49-38.06,50.91-63.8,99.77
		c-8.59,16.31-41.82,81.13-63.8,180.36c-19.74,89.12-5.89,95.32-27.91,214.9c-11.46,62.24-24.39,110.42-31.9,138.15
		c-13.75,50.81-26.58,87.57-51.84,161.17c-37.59,109.55-53.47,145.84-83.45,150.51c-8.64,1.35-11.15-1.07-39.93-8.59
		c-47.91-12.52-90.41-18.75-110.29-20.61c-79.19-7.42-109.33,25.4-129.18,9.16c-20.59-16.85-0.72-63.91,39.87-157.34
		c20.41-46.97,38.54-82.66,99.68-207.22c49.75-101.36,38.04-93.01,95.7-214.9c50.42-106.59,64.25-123.28,107.66-222.57
		c41.77-95.55,60.88-153.11,55.82-211.06c-1.19-13.7-4.48-35.85-7.97-80.59c-5.33-68.08-1.85-69.47-7.97-88.26
		C936.03,1532.34,912.15,1526.96,910.68,1488.67z"/>
	<polygon class="st4" points="2880.43,2083.47 2839.92,2198.62 2952.2,2109.66 2944.23,2064.29 	"/>
	<path class="st4" d="M2952.2,2109.66l31.9-72.75l11.96-106.93l-39.87,65.24c-16.57,36.83-33.15,73.66-49.72,110.49
		C2921.71,2107.02,2936.96,2108.34,2952.2,2109.66z"/>
	<path class="st2" d="M1907.52,2256.16c-29.35,69.36-55.51,131.19-63.8,214.9c-2.97,30.01-2,46.17-15.95,61.4
		c-32.34,35.3-105.81,23-151.52,15.35c-38.02-6.36-35.22-8.8-143.54-30.7c-38.97-7.88-57.01-11-81.74-11.51
		c-22.35-0.46-42.9,1.35-95.7,11.51c-78.4,15.08-117.6,22.62-153.51,38.37c-58.73,25.76-81.54,51.7-91.71,65.24
		c-11.83,15.75-17.67,29.44-19.94,34.54c-44.03,99.12-160.19,155.27-171.46,241.76c-11.51,88.4,91.9,167.6,123.61,191.87
		c68.06,52.12,136.82,65.84,215.32,80.59c107.21,20.14,153.43,10.02,330.95,11.51c146.78,1.23,135.05,8.32,307.03,11.51
		c217.58,4.04,326.36,6.06,354.72-14.1c220.82-156.93-148.56-1065.39-270.99-1045.04
		C1957.98,2136.91,1941.16,2176.66,1907.52,2256.16z"/>
	<path class="st1" d="M2186.63,1899.28c-55.69-12.92-106.34,18.6-119.62,26.86c-22.89,14.25-57.54,42.56-87.72,115.12
		c-22.51,54.13-38.28,122.65-27.91,299.32c1.29,21.95,5.96,96.24,23.92,226.41c31.6,228.9,45.32,203.15,47.85,295.48
		c4.01,146.62,5.72,219.94,27.91,260.95c43.03,79.51,159.04,135.69,222.66,110.61c49.81-19.64,28.4-73.65,91.24-137.35
		c81.15-82.26,195.53-71.94,197.69-109.88c2.11-37.09-107.77-37.95-160.72-120.49c-11.85-18.47-12.66-31.19-23.92-176.52
		c-5.82-75.09-7.19-115.78-11.96-195.71c-1.61-26.95-5.82-96.91-11.96-172.69c-18.11-223.44-34.87-273.64-59.81-318.51
		C2272.35,1963.43,2242.96,1912.35,2186.63,1899.28z"/>
	<path class="st8" d="M3290.25,3316.53"/>
	<path class="st6" d="M3340.27,3225.56"/>
	<path class="st9" d="M3444.59,2997"/>
	<path class="st10" d="M2503.36,2078.22"/>
	<path class="st3" d="M2729.69,2984.73"/>
	<rect class="st11" width="5000" height="4237.7"/>
</g>
</svg>
